HIERARCHY
ROOT Hips
{
	OFFSET 0.000000 0.000000 0.000000
	CHANNELS 6 Xposition Yposition Zposition Zrotation Yrotation Xrotation 
	JOINT LowerBack
	{
		OFFSET 0.000000 0.000000 0.000000
		CHANNELS 3 Zrotation Yrotation Xrotation
		JOINT Spine
		{
			OFFSET 0.028270 2.035590 -0.193380
			CHANNELS 3 Zrotation Yrotation Xrotation
			JOINT Spine1
			{
				OFFSET 0.056720 2.048850 -0.042750
				CHANNELS 3 Zrotation Yrotation Xrotation
				JOINT Neck
				{
					OFFSET 0.000000 0.000000 0.000000
					CHANNELS 3 Zrotation Yrotation Xrotation
					JOINT Neck1
					{
						OFFSET -0.054170 1.746240 0.172020
						CHANNELS 3 Zrotation Yrotation Xrotation
						JOINT Head
						{
							OFFSET 0.104070 1.761360 -0.123970
							CHANNELS 3 Zrotation Yrotation Xrotation
							End Site
							{
								OFFSET 0.000000 0.000000 0.000000
							}
						}
					}
				}
				JOINT LeftShoulder
				{
					OFFSET 0.000000 0.000000 0.000000
					CHANNELS 3 Zrotation Yrotation Xrotation
					JOINT LeftArm
					{
						OFFSET 3.362410 1.200890 -0.311210
						CHANNELS 3 Zrotation Yrotation Xrotation
						JOINT LeftForeArm
						{
							OFFSET 4.983000 -0.000000 -0.000000
							CHANNELS 3 Zrotation Yrotation Xrotation
							JOINT LeftHand
							{
								OFFSET 3.483560 -0.000000 -0.000000
								CHANNELS 3 Zrotation Yrotation Xrotation
								JOINT LeftFingerBase
								{
									OFFSET 0.000000 0.000000 0.000000
									CHANNELS 3 Zrotation Yrotation Xrotation
									JOINT LeftHandIndex1
									{
										OFFSET 0.715260 -0.000000 -0.000000
										CHANNELS 3 Zrotation Yrotation Xrotation
										End Site
										{
											OFFSET 0.000000 0.000000 0.000000
										}
									}
								}
								JOINT LThumb
								{
									OFFSET 0.000000 0.000000 0.000000
									CHANNELS 3 Zrotation Yrotation Xrotation
									End Site
									{
										OFFSET 0.000000 0.000000 0.000000
									}
								}
							}
						}
					}
				}
				JOINT RightShoulder
				{
					OFFSET 0.000000 0.000000 0.000000
					CHANNELS 3 Zrotation Yrotation Xrotation
					JOINT RightArm
					{
						OFFSET -3.136600 1.374050 -0.404650
						CHANNELS 3 Zrotation Yrotation Xrotation
						JOINT RightForeArm
						{
							OFFSET -5.241900 -0.000000 -0.000000
							CHANNELS 3 Zrotation Yrotation Xrotation
							JOINT RightHand
							{
								OFFSET -3.444170 -0.000000 -0.000000
								CHANNELS 3 Zrotation Yrotation Xrotation
								JOINT RightFingerBase
								{
									OFFSET 0.000000 0.000000 0.000000
									CHANNELS 3 Zrotation Yrotation Xrotation
									JOINT RightHandIndex1
									{
										OFFSET -0.622530 -0.000000 -0.000000
										CHANNELS 3 Zrotation Yrotation Xrotation
										End Site
										{
											OFFSET 0.000000 0.000000 0.000000
										}
									}
								}
								JOINT RThumb
								{
									OFFSET 0.000000 0.000000 0.000000
									CHANNELS 3 Zrotation Yrotation Xrotation
									End Site
									{
										OFFSET 0.000000 0.000000 0.000000
									}
								}
							}
						}
					}
				}
			}
		}
	}
}
}
MOTION
Frames: 15
Frame Time: 0.008333
-12.565546 16.053738 -1.569324 -38.547294 83.665174 -6.194694 -0.226734 -0.084818 9.361915 -0.800697 0.184868 -1.517044 -5.623750 0.205240 -1.968153 8.851581 -5.438775 -6.232135 -2.137750 -0.149646 -0.073743 0.000000 0.000000 0.000000 1.005789 8.864639 2.518071 -72.001307 17.830394 10.905512 -0.162364 -85.884795 0.004466 -0.907422 3.969032 -0.029725 0.008132 0.174329 0.000000 0.000000 0.000000 0.000000 0.000000 0.000000 0.000000 5.966434 0.996037 0.178683 69.743890 3.922847 10.398679 179.901160 88.215885 179.970864 -4.712972 2.521234 -0.121961 0.075386 -0.415830 0.000000 0.000000 0.000000 0.000000 0.000000 0.000000 0.000000 
-12.419120 16.030810 -1.586254 -37.235946 83.704649 -5.181921 -0.412395 -0.095841 9.441610 -0.845307 0.173709 -1.509293 -5.656136 0.194267 -2.008820 8.821766 -5.370053 -6.183291 -2.163937 -0.152094 -0.059733 0.000000 0.000000 0.000000 1.042841 8.551697 2.527670 -71.710774 17.025921 10.855570 -0.182851 -85.448742 0.003600 -0.729283 4.032132 -0.023992 0.002245 0.175432 0.000000 0.000000 0.000000 0.000000 0.000000 0.000000 0.000000 6.052575 1.034900 0.210037 70.075458 3.602015 10.220369 179.919410 88.705600 179.970993 -4.693503 2.534186 -0.121872 0.071857 -0.413970 0.000000 0.000000 0.000000 0.000000 0.000000 0.000000 0.000000 
-12.274586 16.010194 -1.602859 -35.975617 83.756943 -4.200756 -0.572171 -0.104357 9.519127 -0.883545 0.164644 -1.500631 -5.684493 0.185290 -2.045088 8.760720 -5.291747 -6.121505 -2.191719 -0.154816 -0.042317 0.000000 0.000000 0.000000 1.053036 8.235717 2.533850 -71.381874 16.141489 10.826615 -0.204433 -85.003057 0.002737 -0.559896 4.083317 -0.018357 -0.003795 0.176920 0.000000 0.000000 0.000000 0.000000 0.000000 0.000000 0.000000 6.119408 1.073743 0.238809 70.416990 3.281184 10.037109 179.938856 89.247140 179.970916 -4.703697 2.553300 -0.122786 0.068757 -0.411850 0.000000 0.000000 0.000000 0.000000 0.000000 0.000000 0.000000 
-12.132029 15.991907 -1.619267 -34.775396 83.815608 -3.262316 -0.706751 -0.111179 9.596167 -0.915234 0.157084 -1.488373 -5.707594 0.177962 -2.068649 8.673176 -5.213753 -6.053968 -2.220434 -0.157648 -0.023660 0.000000 0.000000 0.000000 1.048313 7.950059 2.536225 -71.029877 15.150826 10.827087 -0.227939 -84.531527 0.001877 -0.399820 4.125088 -0.012720 -0.010047 0.178791 0.000000 0.000000 0.000000 0.000000 0.000000 0.000000 0.000000 6.172002 1.101940 0.263121 70.757561 2.982244 9.867584 179.959404 89.847927 179.970817 -4.734801 2.580855 -0.124599 0.066043 -0.409391 0.000000 0.000000 0.000000 0.000000 0.000000 0.000000 0.000000 
-11.991150 15.975782 -1.635781 -33.732436 83.867979 -2.455690 -0.804250 -0.116457 9.661425 -0.938142 0.150713 -1.476978 -5.726357 0.171624 -2.086514 8.560143 -5.126277 -5.974058 -2.250316 -0.160735 -0.001448 0.000000 0.000000 0.000000 1.016002 7.664647 2.534256 -70.663214 14.117242 10.809523 -0.251824 -84.069641 0.001014 -0.243594 4.149885 -0.007184 -0.016349 0.181089 0.000000 0.000000 0.000000 0.000000 0.000000 0.000000 0.000000 6.209661 1.130216 0.286422 71.090225 2.696974 9.719965 -0.019423 89.490197 -0.029327 -4.774618 2.617190 -0.127012 0.063614 -0.406555 0.000000 0.000000 0.000000 0.000000 0.000000 0.000000 0.000000 
-11.852068 15.961766 -1.652267 -32.839238 83.911627 -1.775871 -0.870347 -0.121255 9.717481 -0.953323 0.144685 -1.463962 -5.740194 0.165670 -2.091929 8.429181 -5.038835 -5.889406 -2.280693 -0.163903 0.021984 0.000000 0.000000 0.000000 0.971287 7.408678 2.528062 -70.293504 13.015629 10.786568 -0.276797 -83.601623 0.000139 -0.090391 4.165344 -0.001647 -0.022775 0.183747 0.000000 0.000000 0.000000 0.000000 0.000000 0.000000 0.000000 6.239401 1.149240 0.307413 71.406776 2.441658 9.607320 0.002283 88.764684 -0.029406 -4.813329 2.662853 -0.129827 0.061389 -0.403289 0.000000 0.000000 0.000000 0.000000 0.000000 0.000000 0.000000 
-11.714694 15.949726 -1.668706 -32.133314 83.942145 -1.257339 -0.903712 -0.125946 9.759919 -0.960796 0.138588 -1.451238 -5.750077 0.159548 -2.088336 8.285538 -4.948254 -5.798309 -2.311589 -0.167190 0.047277 0.000000 0.000000 0.000000 0.915257 7.168188 2.517711 -69.926675 11.876118 10.738093 -0.302076 -83.142440 -0.000754 0.063077 4.172627 0.003991 -0.029237 0.186727 0.000000 0.000000 0.000000 0.000000 0.000000 0.000000 0.000000 6.265125 1.163424 0.328268 71.702595 2.210079 9.531677 0.024365 87.978437 -0.029361 -4.841825 2.716761 -0.132641 0.059283 -0.399579 0.000000 0.000000 0.000000 0.000000 0.000000 0.000000 0.000000 
-11.578990 15.939559 -1.684923 -31.615896 83.959075 -0.900448 -0.907951 -0.131154 9.788023 -0.961491 0.131826 -1.438754 -5.756599 0.152700 -2.075072 8.135488 -4.856971 -5.703617 -2.342633 -0.170527 0.073615 0.000000 0.000000 0.000000 0.855529 6.948153 2.503588 -69.566128 10.699418 10.666910 -0.327659 -82.690512 -0.001676 0.218894 4.177265 0.009728 -0.035753 0.189961 0.000000 0.000000 0.000000 0.000000 0.000000 0.000000 0.000000 6.291318 1.171440 0.349440 71.975304 2.001278 9.493943 0.046807 87.135624 -0.029150 -4.853083 2.777520 -0.135355 0.057216 -0.395418 0.000000 0.000000 0.000000 0.000000 0.000000 0.000000 0.000000 
-11.445000 15.931221 -1.700674 -31.276795 83.963750 -0.695341 -0.886876 -0.137077 9.801637 -0.956523 0.124192 -1.427212 -5.760922 0.144870 -2.054543 7.984640 -4.764116 -5.605187 -2.373739 -0.173913 0.101073 0.000000 0.000000 0.000000 0.796414 6.740286 2.486155 -69.211332 9.498245 10.570541 -0.353156 -82.251546 -0.002632 0.377709 4.184178 0.015463 -0.042270 0.193369 0.000000 0.000000 0.000000 0.000000 0.000000 0.000000 0.000000 6.321935 1.175546 0.372234 72.225013 1.806578 9.487849 0.069619 86.243995 -0.028758 -4.843261 2.843105 -0.137668 0.055135 -0.390831 0.000000 0.000000 0.000000 0.000000 0.000000 0.000000 0.000000 
-11.312796 15.924724 -1.715728 -31.092564 83.959515 -0.619728 -0.845157 -0.144030 9.803434 -0.947086 0.115412 -1.415831 -5.764008 0.135869 -2.026017 7.837816 -4.671858 -5.505774 -2.404601 -0.177279 0.128780 0.000000 0.000000 0.000000 0.742324 6.551696 2.466185 -68.856735 8.261233 10.464211 -0.378862 -81.819790 -0.003636 0.539761 4.200670 0.021498 -0.048852 0.196854 0.000000 0.000000 0.000000 0.000000 0.000000 0.000000 0.000000 6.360059 1.174609 0.396424 72.453620 1.620905 9.504769 0.092862 85.311660 -0.028183 -4.810310 2.911588 -0.139380 0.052986 -0.385844 0.000000 0.000000 0.000000 0.000000 0.000000 0.000000 0.000000 
-11.182290 15.919991 -1.729877 -31.055745 83.949142 -0.664462 -0.784452 -0.151563 9.791170 -0.933916 0.105802 -1.406742 -5.767120 0.125822 -1.995361 7.697444 -4.577326 -5.401109 -2.435149 -0.180696 0.158117 0.000000 0.000000 0.000000 0.694401 6.353485 2.443724 -68.500795 7.021900 10.333868 -0.403875 -81.409110 -0.004658 0.701265 4.224124 0.027530 -0.055285 0.200401 0.000000 0.000000 0.000000 0.000000 0.000000 0.000000 0.000000 6.405864 1.172620 0.424413 72.665167 1.428543 9.533992 0.116633 84.346456 -0.027471 -4.759655 2.981790 -0.140592 0.050847 -0.380537 0.000000 0.000000 0.000000 0.000000 0.000000 0.000000 0.000000 
-11.053645 15.917192 -1.742907 -31.131093 83.937091 -0.798752 -0.708546 -0.159949 9.771806 -0.917888 0.095214 -1.397223 -5.771058 0.114833 -1.958040 7.566315 -4.485392 -5.296835 -2.464982 -0.184035 0.187242 0.000000 0.000000 0.000000 0.653497 6.172745 2.419928 -68.131103 5.739594 10.215186 -0.429337 -81.001960 -0.005735 0.861612 4.263632 0.033660 -0.061776 0.203899 0.000000 0.000000 0.000000 0.000000 0.000000 0.000000 0.000000 6.460748 1.165238 0.453760 72.864172 1.229231 9.562838 0.140916 83.356911 -0.026644 -4.692442 3.051985 -0.141203 0.048669 -0.374937 0.000000 0.000000 0.000000 0.000000 0.000000 0.000000 0.000000 
-10.926831 15.916360 -1.754741 -31.312400 83.926563 -1.017161 -0.617592 -0.168877 9.746390 -0.899246 0.083897 -1.387721 -5.776658 0.103104 -1.916358 7.444302 -4.395903 -5.191340 -2.493862 -0.187306 0.216659 0.000000 0.000000 0.000000 0.617383 5.998223 2.395122 -67.741612 4.424025 10.108846 -0.455042 -80.603234 -0.006832 1.016402 4.316782 0.039888 -0.068227 0.207338 0.000000 0.000000 0.000000 0.000000 0.000000 0.000000 0.000000 6.522490 1.153184 0.485004 73.055681 1.014081 9.579540 0.165709 82.348970 -0.025757 -4.616285 3.121504 -0.141514 0.046539 -0.369114 0.000000 0.000000 0.000000 0.000000 0.000000 0.000000 0.000000 
-10.801812 15.917557 -1.765353 -31.592174 83.919852 -1.314277 -0.511099 -0.178333 9.717661 -0.877993 0.071850 -1.377668 -5.784506 0.090680 -1.870273 7.330772 -4.310167 -5.084650 -2.521526 -0.190487 0.246327 0.000000 0.000000 0.000000 0.583346 5.830139 2.369720 -67.325676 3.071688 10.022606 -0.481171 -80.212066 -0.007938 1.161561 4.381665 0.046013 -0.074612 0.210709 0.000000 0.000000 0.000000 0.000000 0.000000 0.000000 0.000000 6.588837 1.135253 0.517544 73.244345 0.778868 9.573959 0.190965 81.326648 -0.024864 -4.539297 3.190786 -0.141624 0.044541 -0.363127 0.000000 0.000000 0.000000 0.000000 0.000000 0.000000 0.000000 
-10.678532 15.920868 -1.774796 -31.967958 83.918763 -1.690046 -0.387569 -0.188786 9.688551 -0.853820 0.058610 -1.365745 -5.794977 0.077230 -1.817156 7.224319 -4.232663 -4.979221 -2.547619 -0.193515 0.275485 0.000000 0.000000 0.000000 0.546185 5.680848 2.344139 -66.875991 1.667337 9.970642 -0.508212 -79.824761 -0.009045 1.294138 4.457959 0.051937 -0.080980 0.213988 0.000000 0.000000 0.000000 0.000000 0.000000 0.000000 0.000000 6.657115 1.106658 0.549821 73.433480 0.526997 9.540278 0.216641 80.291271 -0.024008 -4.468687 3.259411 -0.141834 0.042765 -0.356997 0.000000 0.000000 0.000000 0.000000 0.000000 0.000000 0.000000 
